<?xml version="1.0" encoding="UTF-8"?>
<svg version="1.1" viewBox="0 0 1e3 600" xmlns="http://www.w3.org/2000/svg">
<rect width="1e3" height="600" fill="#ffff"/>
<circle transform="matrix(.61823 0 0 .61823 0 58.224)" cx="368.86" cy="391.08" r="166.67" fill="#37be32"/>
<path transform="matrix(.61823 0 0 .61823 0 58.224)" d="m357.24 364.67 44.572 38.879q10.563 9.0669 10.563 25.147 0 16.05-11.913 26.702-11.942 10.681-31.279 10.681-19.337 0-31.573-9.0962-12.265-9.0669-12.265-29.577v-2.3181h16.696v4.6655q0 14.554 6.0153 21.743 6.0153 7.189 18.603 7.189 12.559 0 19.308-6.338 6.7782-6.338 6.7782-16.168 0-9.8298-6.9836-15.933l-43.31-37.617q-12.236-10.563-12.236-27.465t10.651-27.993q10.681-11.092 28.198-11.092 17.547 0 26.526 8.6561 8.9789 8.6561 8.9789 19.014v1.2617h-6.7488q0-6.7488-6.5728-14.143-6.5434-7.3944-17.84-7.3944-11.297 0-17.752 5.4871-6.4261 5.4871-6.4261 17.019 0 11.502 8.0106 18.691z" fill="#fff"/>
<path transform="matrix(.61823 0 0 .61823 0 58.224)" d="m650.75 364.67 44.572 38.879q10.563 9.0669 10.563 25.147 0 16.05-11.913 26.702-11.942 10.681-31.279 10.681-19.337 0-31.573-9.0962-12.265-9.0669-12.265-29.577v-2.3181h16.696v4.6655q0 14.554 6.0153 21.743 6.0153 7.189 18.603 7.189 12.559 0 19.308-6.338 6.7782-6.338 6.7782-16.168 0-9.8298-6.9836-15.933l-43.31-37.617q-12.236-10.563-12.236-27.465t10.651-27.993q10.681-11.092 28.198-11.092 17.547 0 26.526 8.6561 8.9789 8.6561 8.9789 19.014v1.2617h-6.7488q0-6.7488-6.5728-14.143-6.5434-7.3944-17.84-7.3944-11.297 0-17.752 5.4871-6.4261 5.4871-6.4261 17.019 0 11.502 8.0106 18.691zm170.72-6.1326v2.7582h-18.163v-4.6655q0-14.994-6.8662-24.061-6.8662-9.0962-20.305-9.0962-13.41 0-20.276 9.0962-6.8662 9.0669-6.8662 24.061v25.352h55.781v9.9472h-55.781v33.597q0 14.994 6.8662 24.061 6.8662 9.0962 20.276 9.0962 13.439 0 20.305-9.0962 6.8662-9.0669 6.8662-24.061v-4.6655h18.163v2.1127q0 11.414-4.4308 20.188-4.4601 8.7735-11.62 13.615-13.967 9.3016-29.167 9.3016-23.034 0-36.649-15.845-13.644-15.845-13.644-39.935v-38.439q0-24.09 13.644-39.935 13.615-15.845 36.649-15.845 17.958 0 31.573 11.209 13.644 11.18 13.644 31.25zm119.78 0v2.7582h-18.163v-4.8709q0-14.789-6.8662-23.856-6.8662-9.0962-20.276-9.0962t-20.276 9.0962q-6.8662 9.0669-6.8662 23.856v69.102q0 14.994 6.8662 24.061 6.8662 9.0962 20.276 9.0962t20.276-9.0962q6.8662-9.0669 6.8662-24.061v-4.6655h18.163v2.1127q0 11.414-4.4308 20.188-4.4308 8.7735-11.62 13.615-13.938 9.3016-29.167 9.3016-23.005 0-36.649-15.845-13.615-15.845-13.615-39.935v-38.439q0-24.09 13.615-39.935 13.644-15.845 36.649-15.845 17.958 0 31.602 11.209 13.615 11.18 13.615 31.25zm131.63-6.9542v6.7488h-21.978v-6.9836q0-15.2-6.7488-20.481-3.8146-2.9636-7.5117-4.3427-3.6972-1.3498-10.681-3.0516v140.49h-23.005v-140.49q-7.3944 1.7019-11.004 3.0516-3.5798 1.3791-7.3944 4.3427-6.7488 5.2817-6.7488 20.716v6.7488h-21.772v-6.7488q0-20.921 17.547-28.756 14.994-6.7488 40.757-6.7488 42.694 0 54.108 17.752 4.4308 7.189 4.4308 17.752zm117.46 21.743v35.71q0 26.203-12.881 41.608-12.881 15.434-37.412 15.434-24.501 0-37.383-15.434-12.881-15.405-12.881-41.608v-35.71q0-26.408 12.881-41.813 12.881-15.434 37.383-15.434 24.531 0 37.412 15.522 12.881 15.522 12.881 41.725zm-23.239 52.201v-68.897q0-14.789-6.8662-23.973-6.8662-9.1843-20.276-9.1843-13.41 0-20.276 9.1843-6.8662 9.1843-6.8662 23.973v68.897q0 14.994 6.8662 24.061 6.8662 9.0962 20.276 9.0962 13.41 0 20.276-9.0962 6.8662-9.0669 6.8662-24.061zm143.66 9.9178v28.521h-22.829v-35.71q0-32.952-30.194-32.952-3.169 0-5.4871 0.2054v-5.2817q11.825 0 22.183-6.5434 5.4871-3.5798 8.8615-10.886 3.3744-7.277 3.3744-17.43 0-16.05-8.3333-23.122-8.3627-7.0716-26.086-7.0716h-11.62v138.79h-22.829v-145.77h41.197q49.442 0 49.442 37.617 0 26.174-34.008 36.532 36.326 7.3944 36.326 43.104zm49.442-70.775 44.572 38.879q10.563 9.0669 10.563 25.147 0 16.05-11.942 26.702-11.942 10.681-31.25 10.681-19.337 0-31.602-9.0962-12.236-9.0669-12.236-29.577v-2.3181h16.667v4.6655q0 14.554 6.0446 21.743 6.0153 7.189 18.574 7.189 12.588 0 19.337-6.338 6.7488-6.338 6.7488-16.168 0-9.8298-6.9542-15.933l-43.31-37.617q-12.265-10.563-12.265-27.465t10.681-27.993q10.651-11.092 28.198-11.092 17.547 0 26.526 8.6561 8.9789 8.6561 8.9789 19.014v1.2617h-6.7782q0-6.7488-6.5434-14.143-6.5434-7.3944-17.84-7.3944-11.326 0-17.752 5.4871-6.4554 5.4871-6.4554 17.019 0 11.502 8.0399 18.691z" fill="#6cc469"/>
</svg>
