<?xml version="1.0" encoding="UTF-8"?>
<svg class="font" data-v-423bf9ae="" viewBox="0 0 305.38 60" xmlns="http://www.w3.org/2000/svg">
<defs data-v-423bf9ae="">
<linearGradient id="a" data-v-423bf9ae="" gradientTransform="rotate(25)">
<stop stop-color="#288642" data-v-423bf9ae="" offset="0"/>
<stop stop-color="#27fdfd" data-v-423bf9ae="" offset="1"/>
</linearGradient>
</defs>
<g transform="matrix(6.3476 0 0 6.3476 -1.44 -22.074)" fill="url(#a)" data-v-423bf9ae="">
<path d="m3.07 3.64q-0.96 0.3-1.51 1t-0.65 1.48 0.44 1.34q0.54 0.57 2.11 1.29 1.56 0.72 1.85 1.23 0.28 0.51-0.08 0.98-0.37 0.47-1.08 0.39t-1.43-0.53q-0.72-0.44-1.09-0.92-0.37-0.47-0.05-1.22l-0.1-0.11-1.21 1.41q-0.17 0.54 0.33 1.28 0.51 0.74 1.17 1.13t1.45 0.42 1.52-0.61 1.2-1.45q0.48-0.81 0.38-1.68-0.11-0.86-0.55-1.21-0.45-0.34-2.21-1.17t-1.73-1.45q0.04-0.63 0.88-0.69 0.85-0.07 1.33 0.44t-0.03 1.16l0.19 0.17 1.38-1.67q-0.34-0.66-0.95-0.98-0.6-0.32-1.56-0.03zm4.61 0.02-1.19 1.85 0.24 0.1q0.41-0.5 0.9-0.5h1.18q-0.88 0.36-0.95 1.11l-0.01 0.97-0.96 1.38 0.1 0.15 0.87-0.46-0.01 2.32q0.05 0.49-1.01 2.13l4.58-0.01 1.4-2-0.34-0.02q-0.43 0.56-1 0.55l-3.3-0.01q0.52-0.15 0.92-1.12l0.01-1.76h0.8l1.18-1.19-0.11-0.18h-1.83v-1.89h2.2l1.23-1.3-0.04-0.14-4.86 0.02zm9.19-0.11q-0.57 0.08-1.48 0.88-0.9 0.8-1.3 1.36t-0.77 1.36q-0.36 0.79-0.17 1.96 0.18 1.17 1.48 2.46t2.83 1.19l1.56-1.84-0.21-0.16-0.53 0.56q-1.16 0.17-2.11-0.48t-1.55-1.83q-0.59-1.18-0.16-2.77 0.4-1.43 1.75-1.37 2.17 0.17 1.78 1.58l0.12 0.05q1.31-1.2 1.35-1.54 0.03-0.34-0.48-0.84-0.51-0.51-1.02-0.58-0.51-0.06-1.09 0.01zm3.9 0.09-1.19 1.86 0.24 0.09q0.22-0.48 0.69-0.5l3.03 0.01q-0.81 0.48-1.02 1.52l-0.01 3.65 0.01 0.85q-0.39 0.73-1.34 1.78l0.17 0.03q0.21-0.37 2.41-0.24l1.13-1.32-0.16-0.12q-0.34 0.23-1.89 0.17 0.48-0.5 1.11-1.54v-4.77l2.33-0.01 1.31-1.34-0.11-0.12h-6.71zm9.61-0.01q-0.48 0.25-1.54 1.4-1.05 1.14-1.25 2.95-0.19 1.8 0.89 3.25 1.09 1.44 1.95 1.56 0.86 0.11 1.56-0.53 0.7-0.65 1.55-2.23 0.84-1.58 0.69-2.98t-1.06-2.38q-0.91-0.97-1.61-1.13t-1.18 0.09zm-0.52 1.28q1.07-0.15 2.06 0.88 1 1.02 1.13 2.8 0.13 1.79-0.47 2.37-0.6 0.59-1.54 0.19t-1.74-1.89q-0.79-1.5-0.65-2.85 0.15-1.36 1.21-1.5zm1.11 1.88-1.24 1.17q0.74 0.14 0.79 1.13l1.27-1.04q0.04-0.93-0.82-1.26zm4.64-3.17-1.19 1.86 0.23 0.1q0.22-0.48 0.7-0.53h1.52q-0.88 0.24-1.09 0.8l-0.01 4.42 0.01 0.85q-0.19 0.73-1.04 1.59l0.08 0.22q0.57-0.28 2.41-0.24l1.13-1.32-0.17-0.13q-0.33 0.24-1.88 0.18 0.65-0.49 0.89-1l0.01-2.2q0.58-0.01 0.89 0.2t0.55 0.62q0.23 0.42 0.45 1.02 0.22 0.59 0.65 1.41t1.09 1.35l1.65-1.32-0.17-0.17q-0.37 0.39-0.61 0.15-0.41-0.43-0.65-0.98t-0.52-1.2q-0.27-0.64-0.72-1.07-0.44-0.43-1.14-0.32 1.02-0.19 1.55-0.97 0.54-0.79 0.21-1.95-0.33-1.15-1.48-1.31l-0.73-0.06h-2.62zm1.58 1.42q0.98-0.08 1.45 0.22 0.48 0.3 0.56 0.97 0.07 0.68-0.23 1.1t-1.78 0.41v-2.7zm7.88-1.4q-0.96 0.3-1.51 1t-0.65 1.48 0.44 1.34q0.54 0.57 2.11 1.29 1.56 0.72 1.85 1.23 0.28 0.51-0.08 0.98-0.37 0.47-1.08 0.39t-1.43-0.53q-0.72-0.44-1.09-0.92-0.37-0.47-0.05-1.22l-0.1-0.11-1.21 1.41q-0.17 0.54 0.33 1.28 0.51 0.74 1.17 1.13t1.45 0.42 1.52-0.61 1.2-1.45q0.48-0.81 0.38-1.68-0.11-0.86-0.55-1.21-0.45-0.34-2.21-1.17t-1.73-1.45q0.04-0.63 0.88-0.69 0.85-0.07 1.33 0.44t-0.03 1.16l0.19 0.17 1.38-1.67q-0.34-0.66-0.95-0.98-0.6-0.32-1.56-0.03z"/>
</g>
</svg>
